<?xml version="1.0" standalone="no"?><!DOCTYPE svg PUBLIC "-//W3C//DTD SVG 1.1//EN" "http://www.w3.org/Graphics/SVG/1.1/DTD/svg11.dtd"><svg t="1506740121221" class="icon" style="" viewBox="0 0 1024 1024" version="1.1" xmlns="http://www.w3.org/2000/svg" p-id="12694" xmlns:xlink="http://www.w3.org/1999/xlink" width="48" height="48"><defs><style type="text/css"></style></defs><path d="M873.242624 454.877184 989.773824 567.361536C1017.233408 592.044032 1019.510784 632.4224 994.885632 657.072128 970.244096 681.705472 929.898496 679.387136 905.191424 651.927552L792.772608 535.371776C776.953856 517.799936 780.337152 488.398848 781.058048 473.260032 734.134272 513.35168 673.251328 537.534464 606.724096 537.534464 458.309632 537.534464 338.026496 417.21856 338.026496 268.771328 338.026496 120.332288 458.309632 0.008192 606.724096 0.008192 755.130368 0.008192 875.421696 120.332288 875.421696 268.771328 875.421696 335.323136 851.23072 396.222464 811.147264 443.162624 826.269696 442.49088 855.687168 439.066624 873.242624 454.877184ZM606.724096 89.595904C507.797504 89.595904 427.589632 169.82016 427.589632 268.771328 427.589632 367.722496 507.797504 447.954944 606.724096 447.954944 705.650688 447.954944 785.85856 367.722496 785.85856 268.771328 785.85856 169.82016 705.650688 89.595904 606.724096 89.595904ZM358.178816 497.876992C358.178816 516.030464 343.465984 530.735104 325.320704 530.735104L176.013312 530.735104C157.85984 530.735104 144.113664 516.030464 144.113664 497.876992 144.113664 479.72352 158.826496 464.994304 176.979968 464.994304L325.320704 464.994304C343.465984 464.994304 358.178816 479.72352 358.178816 497.876992ZM275.398656 202.489856 152.141824 202.489856C107.003904 202.489856 92.741632 216.76032 92.741632 261.881856L92.741632 633.217024C99.753984 633.298944 305.184768 634.38848 305.184768 634.38848 350.306304 634.38848 405.561344 689.463296 405.561344 734.584832 405.561344 734.584832 404.611072 928.407552 407.887872 940.081152L643.39968 940.081152C688.521216 940.081152 713.424896 925.81888 713.424896 880.664576L713.424896 630.693888C713.424896 630.693888 725.712896 595.5584 753.917952 595.5584 783.589376 595.5584 794.238976 630.693888 794.238976 630.693888L794.238976 915.685376C794.238976 967.286784 752.427008 1023.91808 700.86656 1023.91808L329.547776 1023.91808 329.547776 1023.893504 329.457664 1023.991808 13.524992 703.799296 13.88544 703.44704 11.927552 703.44704 11.927552 226.861056C11.927552 175.284224 64.380928 122.822656 115.949568 122.822656L275.398656 122.822656C275.398656 122.822656 302.891008 136.241152 302.710784 163.930112 302.538752 192.495616 275.398656 202.489856 275.398656 202.489856Z" p-id="12695" fill="#fa8919"></path></svg>