<?xml version="1.0" standalone="no"?><!DOCTYPE svg PUBLIC "-//W3C//DTD SVG 1.1//EN" "http://www.w3.org/Graphics/SVG/1.1/DTD/svg11.dtd"><svg t="1506740008262" class="icon" style="" viewBox="0 0 1024 1024" version="1.1" xmlns="http://www.w3.org/2000/svg" p-id="7164" xmlns:xlink="http://www.w3.org/1999/xlink" width="48" height="48"><defs><style type="text/css"></style></defs><path d="M293.291836 481.415424c-32.092929 0-64.185858 0.169869-96.27674-0.064468-18.436908-0.135076-35.868929-4.015454-50.301639-16.554024-9.575076-8.318456-17.638729-17.932418-19.960611-30.704302-2.167363-11.922541-4.193509-24.073278-4.275373-36.138058-0.421602-61.889559-0.467651-123.785258-0.065492-185.67584 0.168846-26.082028 9.307993-48.116881 32.576953-62.639642 11.638061-7.263427 24.614607-10.269901 37.767162-10.356882 67.23838-0.448208 134.485971-0.680499 201.720258 0.026606 26.879184 0.282433 49.296753 11.672854 61.701271 36.503379 5.058203 10.124592 7.961322 22.400173 8.085142 33.737382 0.732687 67.233264 0.830925 134.483924 0.12996 201.717188-0.280386 26.886347-11.642155 49.343825-36.511565 61.682851-10.349719 5.134951-22.864754 7.729032-34.502815 8.095375C360.045169 482.0949 326.657758 481.414401 293.291836 481.415424zM293.438169 177.282682c-33.094746 0-66.190515-0.031722-99.285261 0.011256-21.230534 0.027629-33.640168 12.43931-33.649378 33.68417-0.029676 66.189492-0.030699 132.380006 0 198.569498 0.010233 21.225417 12.446473 33.640168 33.682124 33.648354 66.189492 0.026606 132.380006 0.026606 198.569498 0 21.228487-0.008186 33.639145-12.422937 33.648354-33.6811 0.029676-66.189492 0.030699-132.380006 0-198.569498-0.010233-21.240767-12.416797-33.623795-33.6811-33.651424C359.628684 177.251983 326.532915 177.282682 293.438169 177.282682z" p-id="7165" fill="#fa8919"></path><path d="M724.434274 481.414401c-32.856315 0-65.719794 0.421602-98.5669-0.135076-25.464975-0.431835-47.076178-9.233292-61.569264-31.766494-7.442506-11.573593-10.688433-24.534789-10.789741-37.641295-0.523933-67.746964-0.769526-135.505183 0.016373-203.247031 0.312108-26.883277 12.063757-49.143257 37.009915-61.362556 9.958816-4.878101 21.939685-7.720845 33.038464-7.836479 67.234287-0.703011 134.482901-0.789992 201.718211-0.134053 26.91807 0.261966 49.294706 11.622712 61.772902 36.386722 5.090948 10.103102 8.048303 22.378683 8.173147 33.707706 0.740874 67.233264 0.807389 134.482901 0.148379 201.717188-0.264013 26.91193-11.568477 49.354058-36.390815 61.754482-10.333346 5.16258-22.843264 7.812943-34.473139 8.18338C791.18863 482.103086 757.800195 481.414401 724.434274 481.414401zM724.43939 443.205171c33.094746 0 66.190515 0.025583 99.285261-0.00921 21.236674-0.022513 33.649378-12.417821 33.658587-33.670867 0.030699-66.189492 0.030699-132.380006 0-198.569498-0.010233-21.245883-12.413727-33.650401-33.669844-33.660634-66.189492-0.032746-132.380006-0.032746-198.569498 0-21.237697 0.010233-33.650401 12.43317-33.660634 33.67189-0.030699 66.189492-0.030699 132.380006 0 198.569498 0.010233 21.233604 12.440333 33.637098 33.67189 33.659611C658.248875 443.22973 691.343621 443.205171 724.43939 443.205171z" p-id="7166" fill="#fa8919"></path><path d="M464.625016 745.044684c0 32.601512 0.423649 65.211211-0.135076 97.803513-0.436952 25.463951-9.229199 47.078225-31.771611 61.567217-11.574616 7.439436-24.533766 10.68741-37.640272 10.788717-67.746964 0.523933-135.505183 0.773619-203.247031-0.01842-26.873044-0.314155-49.15349-12.042267-61.36051-37.006845-4.871961-9.963932-7.718799-21.940708-7.835456-33.039487-0.703011-67.234287-0.789992-134.482901-0.134053-201.718211 0.26299-26.917046 11.619642-49.294706 36.390815-61.766762 10.106172-5.087878 22.37766-8.05342 33.70566-8.178263 67.233264-0.740874 134.482901-0.806365 201.718211-0.149403 26.917046 0.26299 49.338708 11.603269 61.756529 36.394908 5.17179 10.32516 7.813966 22.844288 8.18031 34.473139C465.308585 677.781744 464.623993 711.423959 464.625016 745.044684zM426.414763 745.075383c0-33.349549 0.028653-66.699098-0.010233-100.048647-0.024559-21.265326-12.401448-33.686217-33.635051-33.69645-66.189492-0.033769-132.380006-0.032746-198.569498-0.001023-21.263279 0.010233-33.686217 12.413727-33.69645 33.636075-0.030699 66.189492-0.030699 132.380006 0 198.569498 0.00921 21.258163 12.420891 33.686217 33.635051 33.695427 66.189492 0.027629 132.380006 0.026606 198.569498 0 21.25407-0.008186 33.669844-12.406564 33.695427-33.634028C426.444439 810.756291 426.414763 777.916349 426.414763 745.075383z" p-id="7167" fill="#fa8919"></path><path d="M724.349339 915.450748c-32.856315 0-65.720817 0.430812-98.5669-0.138146-25.467021-0.441045-47.072085-9.279341-61.527308-31.838126-7.419993-11.57871-10.652618-24.538883-10.751878-37.652552-0.514723-67.746964-0.771573-135.506207 0.025583-203.247031 0.316202-26.8843 12.125155-49.123814 37.08257-61.312414 9.964956-4.865821 21.944801-7.688099 33.045627-7.803733 67.234287-0.699941 134.483924-0.810459 201.718211-0.12075 26.88737 0.275269 49.301869 11.634991 61.736063 36.444027 5.070482 10.117428 8.002254 22.38994 8.127098 33.724079 0.735757 67.233264 0.821715 134.482901 0.138146 201.717188-0.273223 26.894534-11.603269 49.349965-36.452213 61.717643-10.342556 5.14723-22.855544 7.768941-34.488489 8.137331C791.102672 916.134317 757.715261 915.449725 724.349339 915.450748zM857.394495 745.073336c0-33.349549 0.028653-66.699098-0.010233-100.048647-0.024559-21.263279-12.402471-33.68417-33.637098-33.694403-66.189492-0.032746-132.380006-0.032746-198.569498 0-21.261233 0.010233-33.68417 12.414751-33.694403 33.639145-0.030699 66.189492-0.030699 132.380006 0 198.569498 0.00921 21.25714 12.421914 33.68417 33.638121 33.692357 66.189492 0.026606 132.380006 0.026606 198.569498 0 21.253046-0.008186 33.667797-12.407588 33.69338-33.636075C857.42417 810.754245 857.394495 777.914302 857.394495 745.073336z" p-id="7168" fill="#fa8919"></path></svg>